<svg xmlns="http://www.w3.org/2000/svg" xmlns:xlink="http://www.w3.org/1999/xlink" xmlns:inkscape="http://www.inkscape.org/namespaces/inkscape" version="1.1" width="612" height="792" viewBox="0 0 612 792">
<g>
<path d="M266.008 363.922C260.141 359.781 250.262 362.152 250.602 373.191 251.949 384.453 265.18 395.813 261.414 405.48 258.695 409.188 256.988 410.039 250.629 408.707 253.867 411.434 257.328 411.09 261.59 408.934 273.641 399.848 257.059 385.004 254.461 372.594 252.652 363.957 261.008 361.797 266.008 363.922ZM266.008 363.922" fill="#1b1918" fill-rule="evenodd"/>
<path stroke-width=".2999" stroke-linecap="butt" stroke-miterlimit="4" stroke-linejoin="miter" fill="none" stroke="#1b1918" d="M266.008 363.922C260.141 359.781 250.262 362.152 250.602 373.191 251.949 384.453 265.18 395.813 261.414 405.48 258.695 409.188 256.988 410.039 250.629 408.707 253.867 411.434 257.328 411.09 261.59 408.934 273.641 399.848 257.059 385.004 254.461 372.594 252.652 363.957 261.008 361.797 266.008 363.922ZM266.008 363.922"/>
<path d="M284.383 404.289V393.781C284.332 392.82 284.066 391.977 283.594 391.258 283.117 390.535 282.434 389.961 281.547 389.531 280.656 389.102 279.625 388.887 278.449 388.887 277.672 388.836 276.828 389.004 275.914 389.398 275 389.789 274.215 390.461 273.566 391.41 272.914 392.355 272.578 393.566 272.551 395.031 272.551 396.98 273.133 398.543 274.297 399.719 275.461 400.895 276.844 401.48 278.449 401.48 280.176 401.48 280.957 401.82 283.066 401.508L283.137 404.211C279.391 404.57 274.531 404.586 271.969 402.051 270.152 400.254 269.246 397.914 269.246 395.031 269.246 392.402 270.074 390.188 271.727 388.391 273.379 386.598 275.707 385.699 278.711 385.699 280.563 385.699 282.191 386.086 283.594 386.855 284.996 387.629 286.039 388.645 286.73 389.91 287.418 391.176 287.762 392.555 287.762 394.047V404.289ZM284.383 404.289" fill="#1b1918" fill-rule="evenodd"/>
<path stroke-width=".2999" stroke-linecap="butt" stroke-miterlimit="4" stroke-linejoin="miter" fill="none" stroke="#1b1918" d="M284.383 404.289V393.781C284.332 392.82 284.066 391.977 283.594 391.258 283.117 390.535 282.434 389.961 281.547 389.531 280.656 389.102 279.625 388.887 278.449 388.887 277.672 388.836 276.828 389.004 275.914 389.398 275 389.789 274.215 390.461 273.566 391.41 272.914 392.355 272.578 393.566 272.551 395.031 272.551 396.98 273.133 398.543 274.297 399.719 275.461 400.895 276.844 401.48 278.449 401.48 280.176 401.48 280.957 401.82 283.066 401.508L283.137 404.211C279.391 404.57 274.531 404.586 271.969 402.051 270.152 400.254 269.246 397.914 269.246 395.031 269.246 392.402 270.074 390.188 271.727 388.391 273.379 386.598 275.707 385.699 278.711 385.699 280.563 385.699 282.191 386.086 283.594 386.855 284.996 387.629 286.039 388.645 286.73 389.91 287.418 391.176 287.762 392.555 287.762 394.047V404.289ZM284.383 404.289"/>
<path d="M291.066 404.289V391.77C291.117 390.68 291.418 389.668 291.969 388.734 292.52 387.797 293.313 387.051 294.352 386.496 295.395 385.938 296.551 385.672 297.828 385.699 299.855 385.75 301.508 386.609 302.785 388.277 303.961 386.559 305.777 385.699 308.23 385.699 309.332 385.699 310.375 385.977 311.367 386.531 312.355 387.09 313.129 387.836 313.695 388.77 314.258 389.707 314.539 390.707 314.539 391.77V404.289H311.234V392.793C311.234 391.781 310.988 390.883 310.5 390.098 310.012 389.316 309.18 388.91 308.004 388.887 306.777 388.887 305.883 389.27 305.32 390.043 304.758 390.813 304.473 391.73 304.473 392.793V404.289H301.094V393.02C301.094 391.73 300.805 390.711 300.23 389.965 299.656 389.219 298.828 388.859 297.75 388.887 296.426 388.91 295.531 389.32 295.066 390.117 294.605 390.914 294.371 391.957 294.371 393.246V404.289ZM291.066 404.289" fill="#1b1918" fill-rule="evenodd"/>
<path stroke-width=".2999" stroke-linecap="butt" stroke-miterlimit="4" stroke-linejoin="miter" fill="none" stroke="#1b1918" d="M291.066 404.289V391.77C291.117 390.68 291.418 389.668 291.969 388.734 292.52 387.797 293.313 387.051 294.352 386.496 295.395 385.938 296.551 385.672 297.828 385.699 299.855 385.75 301.508 386.609 302.785 388.277 303.961 386.559 305.777 385.699 308.23 385.699 309.332 385.699 310.375 385.977 311.367 386.531 312.355 387.09 313.129 387.836 313.695 388.77 314.258 389.707 314.539 390.707 314.539 391.77V404.289H311.234V392.793C311.234 391.781 310.988 390.883 310.5 390.098 310.012 389.316 309.18 388.91 308.004 388.887 306.777 388.887 305.883 389.27 305.32 390.043 304.758 390.813 304.473 391.73 304.473 392.793V404.289H301.094V393.02C301.094 391.73 300.805 390.711 300.23 389.965 299.656 389.219 298.828 388.859 297.75 388.887 296.426 388.91 295.531 389.32 295.066 390.117 294.605 390.914 294.371 391.957 294.371 393.246V404.289ZM291.066 404.289"/>
<path d="M339.246 389.141 341.664 387.043 351.93 396.523 349.84 398.848ZM339.246 389.141" fill="#1b1918" fill-rule="evenodd"/>
<path stroke-width=".2999" stroke-linecap="butt" stroke-miterlimit="4" stroke-linejoin="miter" fill="none" stroke="#1b1918" d="M339.246 389.141 341.664 387.043 351.93 396.523 349.84 398.848ZM339.246 389.141"/>
<path d="M353.289 396.617 369.566 382.09 371.512 384.078 355.266 398.676ZM353.289 396.617" fill="#1b1918" fill-rule="evenodd"/>
<path stroke-width=".2999" stroke-linecap="butt" stroke-miterlimit="4" stroke-linejoin="miter" fill="none" stroke="#1b1918" d="M353.289 396.617 369.566 382.09 371.512 384.078 355.266 398.676ZM353.289 396.617"/>
<path d="M353.402 401.426 345.188 414.758 344.043 414.168 352.258 400.836ZM353.402 401.426" fill="#1b1918" fill-rule="evenodd"/>
<path stroke-width=".2999" stroke-linecap="butt" stroke-miterlimit="4" stroke-linejoin="miter" fill="none" stroke="#1b1918" d="M353.402 401.426 345.188 414.758 344.043 414.168 352.258 400.836ZM353.402 401.426"/>
<path d="M332.41 404.289V393.781C332.359 392.82 332.094 391.977 331.621 391.258 331.145 390.535 330.461 389.961 329.574 389.531 328.684 389.102 327.652 388.887 326.473 388.887 325.699 388.836 324.852 389.004 323.938 389.398 323.027 389.789 322.242 390.461 321.594 391.41 320.941 392.355 320.602 393.566 320.578 395.031 320.578 396.98 321.16 398.543 322.324 399.719 323.488 400.895 324.871 401.48 326.473 401.48 328.203 401.48 328.984 401.82 331.094 401.508L331.164 404.211C327.418 404.57 322.559 404.586 319.996 402.051 318.18 400.254 317.273 397.914 317.273 395.031 317.273 392.402 318.102 390.188 319.754 388.391 321.406 386.598 323.734 385.699 326.738 385.699 328.59 385.699 330.219 386.086 331.621 386.855 333.023 387.629 334.066 388.645 334.754 389.91 335.445 391.176 335.789 392.555 335.789 394.047V404.289ZM332.41 404.289" fill="#1b1918" fill-rule="evenodd"/>
<path stroke-width=".2999" stroke-linecap="butt" stroke-miterlimit="4" stroke-linejoin="miter" fill="none" stroke="#1b1918" d="M332.41 404.289V393.781C332.359 392.82 332.094 391.977 331.621 391.258 331.145 390.535 330.461 389.961 329.574 389.531 328.684 389.102 327.652 388.887 326.473 388.887 325.699 388.836 324.852 389.004 323.938 389.398 323.027 389.789 322.242 390.461 321.594 391.41 320.941 392.355 320.602 393.566 320.578 395.031 320.578 396.98 321.16 398.543 322.324 399.719 323.488 400.895 324.871 401.48 326.473 401.48 328.203 401.48 328.984 401.82 331.094 401.508L331.164 404.211C327.418 404.57 322.559 404.586 319.996 402.051 318.18 400.254 317.273 397.914 317.273 395.031 317.273 392.402 318.102 390.188 319.754 388.391 321.406 386.598 323.734 385.699 326.738 385.699 328.59 385.699 330.219 386.086 331.621 386.855 333.023 387.629 334.066 388.645 334.754 389.91 335.445 391.176 335.789 392.555 335.789 394.047V404.289ZM332.41 404.289"/>
<path d="M284.961 408.996H285.219C285.426 408.59 285.613 408.305 285.785 408.137 285.953 407.969 286.148 407.883 286.363 407.883 286.582 407.883 286.691 407.938 286.691 408.043 286.691 408.094 286.605 408.23 286.438 408.461 286.266 408.684 286.137 408.875 286.051 409.031 286.188 409.047 286.305 409.063 286.41 409.074 286.516 409.086 286.598 409.098 286.656 409.105 286.43 409.559 286.148 410.023 285.809 410.496 285.699 410.488 285.605 410.48 285.531 410.473 285.457 410.469 285.379 410.461 285.301 410.453 285.227 410.449 285.133 410.441 285.02 410.434 284.809 410.805 284.629 411.137 284.484 411.43 284.344 411.723 284.23 411.992 284.156 412.234 284.078 412.477 284.039 412.707 284.039 412.926 284.039 413.223 284.148 413.367 284.363 413.367 284.516 413.367 284.711 413.281 284.953 413.109 285.195 412.938 285.52 412.672 285.93 412.313V412.742C284.863 413.992 284.074 414.617 283.566 414.617 283.391 414.617 283.246 414.543 283.141 414.391 283.031 414.242 282.977 414.051 282.977 413.816 282.977 413.66 283.004 413.473 283.066 413.254 283.129 413.035 283.238 412.707 283.395 412.266 283.34 412.32 283.289 412.367 283.238 412.418 283.191 412.465 283.145 412.512 283.102 412.551 283.059 412.594 283.016 412.637 282.969 412.68 282.922 412.727 282.875 412.77 282.828 412.816V412.375C283.242 412 283.742 411.34 284.332 410.395 284.27 410.391 284.215 410.387 284.164 410.383 284.113 410.383 284.051 410.383 283.98 410.383 283.75 410.383 283.574 410.398 283.461 410.434 283.414 410.445 283.371 410.461 283.328 410.473 283.285 410.488 283.258 410.496 283.242 410.496 283.227 410.496 283.219 410.484 283.219 410.461 283.219 410.316 283.297 410.105 283.461 409.824 283.59 409.586 283.711 409.41 283.832 409.293 283.945 409.176 284.09 409.098 284.258 409.059 284.422 409.016 284.66 408.996 284.961 408.996ZM288.34 409.461C288.242 409.461 288.148 409.418 288.063 409.336 287.973 409.254 287.926 409.152 287.926 409.031 287.926 408.844 288.012 408.633 288.176 408.398 288.34 408.172 288.512 408.055 288.691 408.055 288.809 408.055 288.906 408.094 288.984 408.172 289.063 408.25 289.105 408.367 289.105 408.516 289.105 408.699 289.023 408.902 288.863 409.125 288.699 409.348 288.527 409.461 288.34 409.461ZM288.742 412.324V412.793C288.363 413.324 288.004 413.727 287.672 414 287.34 414.27 287.063 414.406 286.828 414.406 286.504 414.406 286.262 414.223 286.105 413.855 285.949 413.488 285.871 413.086 285.871 412.652 285.871 412.484 285.887 412.324 285.914 412.172 285.949 412.02 285.988 411.898 286.027 411.797 286.074 411.699 286.156 411.547 286.27 411.336 286.832 410.395 287.344 409.922 287.809 409.922 288.051 409.922 288.168 410.02 288.168 410.223 288.168 410.359 288.094 410.574 287.934 410.863 287.781 411.152 287.641 411.359 287.52 411.484 287.176 411.844 286.953 412.094 286.848 412.234 286.742 412.375 286.691 412.535 286.691 412.715 286.691 412.867 286.742 412.996 286.852 413.098 286.957 413.203 287.094 413.254 287.266 413.254 287.449 413.254 287.656 413.18 287.875 413.031 288.102 412.887 288.391 412.648 288.742 412.324ZM291.395 413.203C291.941 412.68 292.406 412.227 292.797 411.84 293.188 411.453 293.496 411.148 293.719 410.926 293.938 410.703 294.137 410.516 294.305 410.363 294.473 410.207 294.582 410.133 294.633 410.133 294.723 410.125 294.809 410.23 294.891 410.434 294.973 410.645 295.016 410.809 295.016 410.93 295.016 411.016 294.891 411.203 294.641 411.508 294.391 411.809 294.203 412.047 294.078 412.227 293.953 412.406 293.891 412.594 293.891 412.793 293.891 412.906 293.926 413 294 413.07 294.066 413.141 294.152 413.176 294.254 413.176 294.367 413.176 294.504 413.113 294.664 412.984 294.824 412.855 295.074 412.629 295.418 412.301V412.754C295.074 413.105 294.762 413.406 294.484 413.66 294.203 413.914 293.961 414.105 293.75 414.23 293.547 414.355 293.371 414.418 293.234 414.418 293.113 414.418 293.012 414.367 292.926 414.27 292.844 414.168 292.801 414.043 292.801 413.895 292.801 413.75 292.828 413.602 292.871 413.453 292.922 413.305 292.992 413.125 293.094 412.922 293.191 412.715 293.32 412.469 293.484 412.18 293.645 411.891 293.793 411.629 293.926 411.391 293.527 411.742 293.168 412.086 292.855 412.414 292.543 412.742 292.289 413.031 292.094 413.273 291.895 413.523 291.738 413.715 291.625 413.855 291.406 414.121 291.199 414.254 291.008 414.254 290.805 414.254 290.703 414.094 290.703 413.777 290.703 413.652 290.777 413.422 290.934 413.09 291.086 412.758 291.305 412.336 291.59 411.824 291.613 411.789 291.625 411.738 291.625 411.664 291.625 411.578 291.586 411.535 291.508 411.535 291.422 411.535 291.297 411.625 291.133 411.801 290.965 411.98 290.652 412.348 290.18 412.914 290.051 413.07 289.906 413.277 289.742 413.531 289.578 413.785 289.461 413.957 289.391 414.039 289.316 414.125 289.246 414.168 289.176 414.168 289.035 414.168 288.902 414.035 288.777 413.762 288.656 413.488 288.594 413.168 288.594 412.805 288.594 412.539 288.637 412.309 288.715 412.121 288.797 411.926 288.922 411.688 289.094 411.398 289.355 410.984 289.574 410.691 289.742 410.516 289.91 410.336 290.082 410.246 290.27 410.246 290.387 410.246 290.48 410.27 290.563 410.32 290.641 410.371 290.68 410.438 290.68 410.523 290.68 410.613 290.605 410.758 290.461 410.965 290.316 411.172 290.137 411.383 289.914 411.598 289.797 411.723 289.684 411.875 289.578 412.059 289.469 412.238 289.418 412.371 289.418 412.453 289.418 412.566 289.461 412.625 289.543 412.625 289.609 412.625 289.777 412.477 290.051 412.176 290.324 411.875 290.621 411.551 290.945 411.199 291.273 410.848 291.574 410.555 291.852 410.32 292.129 410.086 292.367 409.973 292.559 409.973 292.676 409.973 292.777 410.02 292.852 410.117 292.93 410.211 292.969 410.328 292.969 410.473 292.969 410.563 292.91 410.734 292.789 410.98 292.672 411.227 292.5 411.527 292.273 411.891 292.047 412.254 291.754 412.688 291.395 413.203ZM296.324 412.555V412.715C296.324 412.965 296.383 413.164 296.496 413.305 296.609 413.445 296.762 413.516 296.945 413.516 297.141 413.516 297.34 413.469 297.547 413.367 297.754 413.27 297.957 413.141 298.164 412.977 298.367 412.816 298.617 412.598 298.914 412.324V412.715C298.469 413.293 298.051 413.742 297.66 414.051 297.27 414.359 296.875 414.516 296.473 414.516 296.121 414.516 295.844 414.367 295.637 414.074 295.434 413.777 295.332 413.375 295.332 412.859 295.332 412.414 295.43 412.004 295.621 411.641 295.813 411.273 296.129 410.891 296.566 410.484 296.867 410.207 297.164 409.996 297.461 409.855 297.754 409.715 298.02 409.645 298.25 409.645 298.438 409.645 298.586 409.691 298.691 409.781 298.801 409.875 298.855 410.012 298.855 410.195 298.855 410.465 298.762 410.734 298.578 411 298.395 411.266 298.109 411.531 297.727 411.797 297.348 412.059 296.879 412.309 296.324 412.555ZM296.383 412.137C296.738 411.988 297.043 411.801 297.293 411.578 297.547 411.359 297.73 411.145 297.855 410.941 297.973 410.738 298.031 410.59 298.031 410.496 298.031 410.398 297.992 410.348 297.91 410.348 297.836 410.348 297.723 410.398 297.563 410.496 297.402 410.594 297.242 410.723 297.078 410.883 296.914 411.039 296.77 411.227 296.637 411.438 296.508 411.652 296.422 411.887 296.383 412.137ZM304.746 409.461C304.645 409.461 304.551 409.418 304.465 409.336 304.375 409.254 304.332 409.152 304.332 409.031 304.332 408.844 304.414 408.633 304.578 408.398 304.746 408.172 304.914 408.055 305.094 408.055 305.215 408.055 305.309 408.094 305.387 408.172 305.469 408.25 305.508 408.367 305.508 408.516 305.508 408.699 305.426 408.902 305.266 409.125 305.105 409.348 304.93 409.461 304.746 409.461ZM305.145 412.324V412.793C304.766 413.324 304.406 413.727 304.074 414 303.746 414.27 303.465 414.406 303.23 414.406 302.906 414.406 302.668 414.223 302.508 413.855 302.352 413.488 302.273 413.086 302.273 412.652 302.273 412.484 302.289 412.324 302.32 412.172 302.352 412.02 302.391 411.898 302.434 411.797 302.477 411.699 302.559 411.547 302.676 411.336 303.234 410.395 303.746 409.922 304.211 409.922 304.453 409.922 304.574 410.02 304.574 410.223 304.574 410.359 304.496 410.574 304.34 410.863 304.184 411.152 304.043 411.359 303.922 411.484 303.578 411.844 303.355 412.094 303.25 412.234 303.148 412.375 303.094 412.535 303.094 412.715 303.094 412.867 303.148 412.996 303.254 413.098 303.359 413.203 303.5 413.254 303.668 413.254 303.855 413.254 304.059 413.18 304.281 413.031 304.504 412.887 304.793 412.648 305.145 412.324ZM305.07 412.504V412.348C306.086 411.188 306.789 410.371 307.168 409.906 307.258 409.379 307.465 409.117 307.797 409.117 307.879 409.117 307.969 409.145 308.063 409.195L308.098 409.316C308.082 409.367 308.074 409.441 308.074 409.535 308.074 409.617 308.102 409.766 308.16 409.984 308.219 410.207 308.262 410.391 308.293 410.543 308.324 410.691 308.34 410.859 308.34 411.047 308.34 411.328 308.281 411.602 308.164 411.859 308.047 412.117 307.875 412.363 307.648 412.602 307.426 412.84 307.137 413.082 306.781 413.328 306.922 413.355 307.035 413.367 307.117 413.367 307.277 413.367 307.453 413.324 307.641 413.238 307.828 413.148 308.02 413.031 308.215 412.887 308.41 412.738 308.637 412.547 308.898 412.313V412.742C308.391 413.273 307.941 413.68 307.543 413.957 307.145 414.23 306.801 414.367 306.512 414.367 306.141 414.367 305.797 414.199 305.484 413.855 305.297 413.652 305.184 413.453 305.137 413.266 305.09 413.078 305.07 412.824 305.07 412.504ZM307.277 411.523 307.168 410.586C306.926 410.887 306.402 411.461 305.602 412.309 305.84 412.367 306 412.441 306.086 412.535 306.176 412.629 306.297 412.813 306.453 413.078 306.723 412.961 306.93 412.797 307.074 412.59 307.215 412.383 307.289 412.102 307.289 411.742 307.289 411.695 307.289 411.656 307.285 411.625 307.285 411.59 307.281 411.559 307.277 411.523ZM316.98 412.754 315.016 414.504C314.465 415.535 313.961 416.309 313.508 416.82 313.055 417.328 312.715 417.586 312.496 417.586 312.375 417.586 312.316 417.504 312.316 417.348 312.316 417.039 312.461 416.645 312.75 416.168 312.863 415.98 312.992 415.797 313.145 415.617 313.289 415.438 313.43 415.281 313.563 415.152 313.695 415.023 313.871 414.859 314.086 414.664 314.305 414.473 314.453 414.34 314.531 414.266 314.926 413.395 315.211 412.727 315.383 412.266 315.012 412.691 314.688 413.043 314.41 413.316 314.137 413.59 313.883 413.801 313.652 413.949 313.422 414.094 313.211 414.168 313.027 414.168 312.828 414.168 312.641 413.996 312.473 413.648 312.301 413.301 312.215 412.941 312.215 412.574 312.215 412.402 312.254 412.223 312.324 412.035 312.398 411.848 312.512 411.648 312.668 411.434 312.824 411.219 313.023 411 313.266 410.777 313.504 410.551 313.789 410.332 314.109 410.117 314.723 409.703 315.199 409.496 315.535 409.496 315.789 409.496 315.918 409.598 315.918 409.797 315.918 410.074 315.641 410.348 315.094 410.613 314.758 410.77 314.426 410.98 314.098 411.238 313.766 411.5 313.5 411.777 313.297 412.07 313.094 412.363 312.992 412.629 312.992 412.859 312.992 412.977 313.02 413.07 313.07 413.137 313.121 413.203 313.188 413.238 313.27 413.238 313.406 413.238 313.566 413.172 313.742 413.035 313.922 412.898 314.184 412.656 314.531 412.309 314.688 412.152 314.898 411.898 315.16 411.543 315.426 411.191 315.641 410.922 315.813 410.738 315.984 410.551 316.137 410.461 316.277 410.461 316.355 410.461 316.418 410.484 316.469 410.539 316.52 410.594 316.543 410.672 316.543 410.773 316.543 410.969 316.469 411.254 316.328 411.629 316.184 412 315.922 412.613 315.551 413.465L316.98 412.336ZM320.742 412.313V412.742C320.484 412.996 320.273 413.168 320.117 413.254 319.961 413.34 319.73 413.375 319.438 413.355 318.922 414.016 318.473 414.344 318.082 414.344 317.863 414.344 317.66 414.262 317.48 414.105 317.297 413.945 317.152 413.73 317.047 413.457 316.938 413.184 316.883 412.879 316.883 412.543 316.883 412.27 316.965 411.965 317.133 411.633 317.301 411.301 317.52 410.988 317.785 410.699 318.051 410.41 318.336 410.18 318.641 410 318.941 409.824 319.223 409.734 319.484 409.734 319.668 409.734 319.816 409.766 319.922 409.828 320.027 409.891 320.082 409.977 320.082 410.086 320.082 410.172 320.035 410.27 319.945 410.383 320.094 410.414 320.199 410.473 320.254 410.555 320.309 410.633 320.336 410.777 320.336 410.984 320.336 411.191 320.293 411.449 320.203 411.762 320.113 412.07 319.992 412.363 319.84 412.637L319.945 412.754H320.035C320.102 412.754 320.168 412.734 320.234 412.699 320.297 412.664 320.355 412.625 320.406 412.582 320.457 412.543 320.57 412.453 320.742 412.313ZM319.527 410.625C319.199 410.84 318.918 411.031 318.688 411.203 318.453 411.379 318.254 411.555 318.094 411.73 317.934 411.906 317.824 412.086 317.77 412.266 317.668 412.746 317.621 413.004 317.621 413.043 317.621 413.324 317.805 413.465 318.164 413.465 318.336 413.465 318.617 413.309 319.016 412.992 318.949 412.789 318.914 412.598 318.914 412.414 318.914 412.145 318.965 411.871 319.07 411.59 319.172 411.309 319.324 410.988 319.527 410.625ZM324.535 412.313V412.742C324.277 412.996 324.066 413.168 323.91 413.254 323.754 413.34 323.523 413.375 323.23 413.355 322.715 414.016 322.266 414.344 321.875 414.344 321.652 414.344 321.453 414.262 321.273 414.105 321.09 413.945 320.945 413.73 320.84 413.457 320.73 413.184 320.676 412.879 320.676 412.543 320.676 412.27 320.758 411.965 320.926 411.633 321.094 411.301 321.313 410.988 321.578 410.699 321.844 410.41 322.125 410.18 322.434 410 322.734 409.824 323.016 409.734 323.277 409.734 323.461 409.734 323.605 409.766 323.715 409.828 323.82 409.891 323.875 409.977 323.875 410.086 323.875 410.172 323.828 410.27 323.738 410.383 323.887 410.414 323.992 410.473 324.047 410.555 324.102 410.633 324.129 410.777 324.129 410.984 324.129 411.191 324.082 411.449 323.996 411.762 323.906 412.07 323.785 412.363 323.633 412.637L323.738 412.754H323.828C323.895 412.754 323.961 412.734 324.023 412.699 324.09 412.664 324.148 412.625 324.199 412.582 324.25 412.543 324.363 412.453 324.535 412.313ZM323.32 410.625C322.992 410.84 322.711 411.031 322.477 411.203 322.246 411.379 322.047 411.555 321.887 411.73 321.727 411.906 321.617 412.086 321.563 412.266 321.461 412.746 321.414 413.004 321.414 413.043 321.414 413.324 321.598 413.465 321.957 413.465 322.125 413.465 322.41 413.309 322.809 412.992 322.742 412.789 322.707 412.598 322.707 412.414 322.707 412.145 322.758 411.871 322.863 411.59 322.965 411.309 323.117 410.988 323.32 410.625ZM327.23 412.336C326.883 412.762 326.57 413.125 326.297 413.426 326.023 413.727 325.801 413.949 325.629 414.094 325.457 414.242 325.34 414.316 325.277 414.316 325.176 414.316 325.059 414.227 324.93 414.047 324.805 413.867 324.691 413.637 324.602 413.363 324.512 413.086 324.465 412.801 324.465 412.516 324.465 412.102 324.652 411.684 325.023 411.262 325.395 410.844 325.816 410.492 326.289 410.215 326.762 409.938 327.117 409.797 327.352 409.797 327.547 409.797 327.738 409.93 327.922 410.195 328.227 409.508 328.516 408.895 328.789 408.359 329.063 407.828 329.293 407.43 329.477 407.172 329.664 406.91 329.797 406.777 329.875 406.777 329.965 406.777 330.043 406.824 330.113 406.918 330.188 407.008 330.223 407.113 330.223 407.227 330.223 407.449 330.074 407.832 329.773 408.371 329.473 408.914 329.18 409.438 328.887 409.953 328.594 410.465 328.344 410.969 328.137 411.469 327.926 411.965 327.824 412.426 327.824 412.848 327.824 413.234 327.938 413.426 328.164 413.426 328.301 413.426 328.477 413.34 328.688 413.172 328.895 413.004 329.195 412.723 329.578 412.324V412.793C328.727 413.984 328.07 414.578 327.609 414.578 327.426 414.578 327.289 414.504 327.211 414.348 327.129 414.195 327.09 413.965 327.09 413.66 327.09 413.254 327.137 412.813 327.23 412.336ZM327.668 410.773C327.316 410.902 326.906 411.105 326.43 411.391 325.957 411.676 325.672 411.871 325.57 411.977 325.484 412.063 325.41 412.223 325.344 412.457 325.277 412.691 325.242 412.871 325.242 412.992 325.242 413.063 325.262 413.121 325.301 413.168 325.34 413.215 325.387 413.238 325.449 413.238 325.504 413.238 325.566 413.215 325.637 413.164 325.711 413.109 325.824 413.012 325.977 412.859 326.133 412.711 326.238 412.617 326.285 412.574 326.352 412.508 326.5 412.371 326.73 412.16 326.961 411.949 327.129 411.781 327.238 411.664 327.344 411.543 327.434 411.41 327.508 411.262 327.582 411.117 327.637 410.953 327.668 410.773ZM330.418 414.367C330.352 414.367 330.297 414.34 330.246 414.285 330.203 414.23 330.176 414.152 330.176 414.055 330.176 413.977 330.219 413.84 330.305 413.641 330.391 413.441 330.496 413.266 330.625 413.109 330.754 412.953 330.887 412.875 331.023 412.875 331.191 412.875 331.277 412.984 331.277 413.199 331.277 413.32 331.234 413.477 331.141 413.668 331.051 413.855 330.938 414.02 330.805 414.16 330.672 414.297 330.543 414.367 330.418 414.367ZM334.453 414.367C334.387 414.367 334.332 414.34 334.281 414.285 334.234 414.23 334.211 414.152 334.211 414.055 334.211 413.977 334.254 413.84 334.34 413.641 334.426 413.441 334.531 413.266 334.66 413.109 334.789 412.953 334.922 412.875 335.059 412.875 335.227 412.875 335.313 412.984 335.313 413.199 335.313 413.32 335.27 413.477 335.176 413.668 335.086 413.855 334.973 414.02 334.84 414.16 334.707 414.297 334.578 414.367 334.453 414.367ZM338.488 414.367C338.422 414.367 338.367 414.34 338.316 414.285 338.273 414.23 338.246 414.152 338.246 414.055 338.246 413.977 338.289 413.84 338.375 413.641 338.461 413.441 338.566 413.266 338.695 413.109 338.824 412.953 338.957 412.875 339.094 412.875 339.262 412.875 339.348 412.984 339.348 413.199 339.348 413.32 339.305 413.477 339.211 413.668 339.121 413.855 339.008 414.02 338.875 414.16 338.738 414.297 338.613 414.367 338.488 414.367ZM338.488 414.367" fill="#1b1918" fill-rule="evenodd"/>
<path stroke-width=".2999" stroke-linecap="butt" stroke-miterlimit="4" stroke-linejoin="miter" fill="none" stroke="#1b1918" d="M284.961 408.996H285.219C285.426 408.59 285.613 408.305 285.785 408.137 285.953 407.969 286.148 407.883 286.363 407.883 286.582 407.883 286.691 407.938 286.691 408.043 286.691 408.094 286.605 408.23 286.438 408.461 286.266 408.684 286.137 408.875 286.051 409.031 286.188 409.047 286.305 409.063 286.41 409.074 286.516 409.086 286.598 409.098 286.656 409.105 286.43 409.559 286.148 410.023 285.809 410.496 285.699 410.488 285.605 410.48 285.531 410.473 285.457 410.469 285.379 410.461 285.301 410.453 285.227 410.449 285.133 410.441 285.02 410.434 284.809 410.805 284.629 411.137 284.484 411.43 284.344 411.723 284.23 411.992 284.156 412.234 284.078 412.477 284.039 412.707 284.039 412.926 284.039 413.223 284.148 413.367 284.363 413.367 284.516 413.367 284.711 413.281 284.953 413.109 285.195 412.938 285.52 412.672 285.93 412.313V412.742C284.863 413.992 284.074 414.617 283.566 414.617 283.391 414.617 283.246 414.543 283.141 414.391 283.031 414.242 282.977 414.051 282.977 413.816 282.977 413.66 283.004 413.473 283.066 413.254 283.129 413.035 283.238 412.707 283.395 412.266 283.34 412.32 283.289 412.367 283.238 412.418 283.191 412.465 283.145 412.512 283.102 412.551 283.059 412.594 283.016 412.637 282.969 412.68 282.922 412.727 282.875 412.77 282.828 412.816V412.375C283.242 412 283.742 411.34 284.332 410.395 284.27 410.391 284.215 410.387 284.164 410.383 284.113 410.383 284.051 410.383 283.98 410.383 283.75 410.383 283.574 410.398 283.461 410.434 283.414 410.445 283.371 410.461 283.328 410.473 283.285 410.488 283.258 410.496 283.242 410.496 283.227 410.496 283.219 410.484 283.219 410.461 283.219 410.316 283.297 410.105 283.461 409.824 283.59 409.586 283.711 409.41 283.832 409.293 283.945 409.176 284.09 409.098 284.258 409.059 284.422 409.016 284.66 408.996 284.961 408.996ZM288.34 409.461C288.242 409.461 288.148 409.418 288.063 409.336 287.973 409.254 287.926 409.152 287.926 409.031 287.926 408.844 288.012 408.633 288.176 408.398 288.34 408.172 288.512 408.055 288.691 408.055 288.809 408.055 288.906 408.094 288.984 408.172 289.063 408.25 289.105 408.367 289.105 408.516 289.105 408.699 289.023 408.902 288.863 409.125 288.699 409.348 288.527 409.461 288.34 409.461ZM288.742 412.324V412.793C288.363 413.324 288.004 413.727 287.672 414 287.34 414.27 287.063 414.406 286.828 414.406 286.504 414.406 286.262 414.223 286.105 413.855 285.949 413.488 285.871 413.086 285.871 412.652 285.871 412.484 285.887 412.324 285.914 412.172 285.949 412.02 285.988 411.898 286.027 411.797 286.074 411.699 286.156 411.547 286.27 411.336 286.832 410.395 287.344 409.922 287.809 409.922 288.051 409.922 288.168 410.02 288.168 410.223 288.168 410.359 288.094 410.574 287.934 410.863 287.781 411.152 287.641 411.359 287.52 411.484 287.176 411.844 286.953 412.094 286.848 412.234 286.742 412.375 286.691 412.535 286.691 412.715 286.691 412.867 286.742 412.996 286.852 413.098 286.957 413.203 287.094 413.254 287.266 413.254 287.449 413.254 287.656 413.18 287.875 413.031 288.102 412.887 288.391 412.648 288.742 412.324ZM291.395 413.203C291.941 412.68 292.406 412.227 292.797 411.84 293.188 411.453 293.496 411.148 293.719 410.926 293.938 410.703 294.137 410.516 294.305 410.363 294.473 410.207 294.582 410.133 294.633 410.133 294.723 410.125 294.809 410.23 294.891 410.434 294.973 410.645 295.016 410.809 295.016 410.93 295.016 411.016 294.891 411.203 294.641 411.508 294.391 411.809 294.203 412.047 294.078 412.227 293.953 412.406 293.891 412.594 293.891 412.793 293.891 412.906 293.926 413 294 413.07 294.066 413.141 294.152 413.176 294.254 413.176 294.367 413.176 294.504 413.113 294.664 412.984 294.824 412.855 295.074 412.629 295.418 412.301V412.754C295.074 413.105 294.762 413.406 294.484 413.66 294.203 413.914 293.961 414.105 293.75 414.23 293.547 414.355 293.371 414.418 293.234 414.418 293.113 414.418 293.012 414.367 292.926 414.27 292.844 414.168 292.801 414.043 292.801 413.895 292.801 413.75 292.828 413.602 292.871 413.453 292.922 413.305 292.992 413.125 293.094 412.922 293.191 412.715 293.32 412.469 293.484 412.18 293.645 411.891 293.793 411.629 293.926 411.391 293.527 411.742 293.168 412.086 292.855 412.414 292.543 412.742 292.289 413.031 292.094 413.273 291.895 413.523 291.738 413.715 291.625 413.855 291.406 414.121 291.199 414.254 291.008 414.254 290.805 414.254 290.703 414.094 290.703 413.777 290.703 413.652 290.777 413.422 290.934 413.09 291.086 412.758 291.305 412.336 291.59 411.824 291.613 411.789 291.625 411.738 291.625 411.664 291.625 411.578 291.586 411.535 291.508 411.535 291.422 411.535 291.297 411.625 291.133 411.801 290.965 411.98 290.652 412.348 290.18 412.914 290.051 413.07 289.906 413.277 289.742 413.531 289.578 413.785 289.461 413.957 289.391 414.039 289.316 414.125 289.246 414.168 289.176 414.168 289.035 414.168 288.902 414.035 288.777 413.762 288.656 413.488 288.594 413.168 288.594 412.805 288.594 412.539 288.637 412.309 288.715 412.121 288.797 411.926 288.922 411.688 289.094 411.398 289.355 410.984 289.574 410.691 289.742 410.516 289.91 410.336 290.082 410.246 290.27 410.246 290.387 410.246 290.48 410.27 290.563 410.32 290.641 410.371 290.68 410.438 290.68 410.523 290.68 410.613 290.605 410.758 290.461 410.965 290.316 411.172 290.137 411.383 289.914 411.598 289.797 411.723 289.684 411.875 289.578 412.059 289.469 412.238 289.418 412.371 289.418 412.453 289.418 412.566 289.461 412.625 289.543 412.625 289.609 412.625 289.777 412.477 290.051 412.176 290.324 411.875 290.621 411.551 290.945 411.199 291.273 410.848 291.574 410.555 291.852 410.32 292.129 410.086 292.367 409.973 292.559 409.973 292.676 409.973 292.777 410.02 292.852 410.117 292.93 410.211 292.969 410.328 292.969 410.473 292.969 410.563 292.91 410.734 292.789 410.98 292.672 411.227 292.5 411.527 292.273 411.891 292.047 412.254 291.754 412.688 291.395 413.203ZM296.324 412.555V412.715C296.324 412.965 296.383 413.164 296.496 413.305 296.609 413.445 296.762 413.516 296.945 413.516 297.141 413.516 297.34 413.469 297.547 413.367 297.754 413.27 297.957 413.141 298.164 412.977 298.367 412.816 298.617 412.598 298.914 412.324V412.715C298.469 413.293 298.051 413.742 297.66 414.051 297.27 414.359 296.875 414.516 296.473 414.516 296.121 414.516 295.844 414.367 295.637 414.074 295.434 413.777 295.332 413.375 295.332 412.859 295.332 412.414 295.43 412.004 295.621 411.641 295.813 411.273 296.129 410.891 296.566 410.484 296.867 410.207 297.164 409.996 297.461 409.855 297.754 409.715 298.02 409.645 298.25 409.645 298.438 409.645 298.586 409.691 298.691 409.781 298.801 409.875 298.855 410.012 298.855 410.195 298.855 410.465 298.762 410.734 298.578 411 298.395 411.266 298.109 411.531 297.727 411.797 297.348 412.059 296.879 412.309 296.324 412.555ZM296.383 412.137C296.738 411.988 297.043 411.801 297.293 411.578 297.547 411.359 297.73 411.145 297.855 410.941 297.973 410.738 298.031 410.59 298.031 410.496 298.031 410.398 297.992 410.348 297.91 410.348 297.836 410.348 297.723 410.398 297.563 410.496 297.402 410.594 297.242 410.723 297.078 410.883 296.914 411.039 296.77 411.227 296.637 411.438 296.508 411.652 296.422 411.887 296.383 412.137ZM304.746 409.461C304.645 409.461 304.551 409.418 304.465 409.336 304.375 409.254 304.332 409.152 304.332 409.031 304.332 408.844 304.414 408.633 304.578 408.398 304.746 408.172 304.914 408.055 305.094 408.055 305.215 408.055 305.309 408.094 305.387 408.172 305.469 408.25 305.508 408.367 305.508 408.516 305.508 408.699 305.426 408.902 305.266 409.125 305.105 409.348 304.93 409.461 304.746 409.461ZM305.145 412.324V412.793C304.766 413.324 304.406 413.727 304.074 414 303.746 414.27 303.465 414.406 303.23 414.406 302.906 414.406 302.668 414.223 302.508 413.855 302.352 413.488 302.273 413.086 302.273 412.652 302.273 412.484 302.289 412.324 302.32 412.172 302.352 412.02 302.391 411.898 302.434 411.797 302.477 411.699 302.559 411.547 302.676 411.336 303.234 410.395 303.746 409.922 304.211 409.922 304.453 409.922 304.574 410.02 304.574 410.223 304.574 410.359 304.496 410.574 304.34 410.863 304.184 411.152 304.043 411.359 303.922 411.484 303.578 411.844 303.355 412.094 303.25 412.234 303.148 412.375 303.094 412.535 303.094 412.715 303.094 412.867 303.148 412.996 303.254 413.098 303.359 413.203 303.5 413.254 303.668 413.254 303.855 413.254 304.059 413.18 304.281 413.031 304.504 412.887 304.793 412.648 305.145 412.324ZM305.07 412.504V412.348C306.086 411.188 306.789 410.371 307.168 409.906 307.258 409.379 307.465 409.117 307.797 409.117 307.879 409.117 307.969 409.145 308.063 409.195L308.098 409.316C308.082 409.367 308.074 409.441 308.074 409.535 308.074 409.617 308.102 409.766 308.16 409.984 308.219 410.207 308.262 410.391 308.293 410.543 308.324 410.691 308.34 410.859 308.34 411.047 308.34 411.328 308.281 411.602 308.164 411.859 308.047 412.117 307.875 412.363 307.648 412.602 307.426 412.84 307.137 413.082 306.781 413.328 306.922 413.355 307.035 413.367 307.117 413.367 307.277 413.367 307.453 413.324 307.641 413.238 307.828 413.148 308.02 413.031 308.215 412.887 308.41 412.738 308.637 412.547 308.898 412.313V412.742C308.391 413.273 307.941 413.68 307.543 413.957 307.145 414.23 306.801 414.367 306.512 414.367 306.141 414.367 305.797 414.199 305.484 413.855 305.297 413.652 305.184 413.453 305.137 413.266 305.09 413.078 305.07 412.824 305.07 412.504ZM307.277 411.523 307.168 410.586C306.926 410.887 306.402 411.461 305.602 412.309 305.84 412.367 306 412.441 306.086 412.535 306.176 412.629 306.297 412.813 306.453 413.078 306.723 412.961 306.93 412.797 307.074 412.59 307.215 412.383 307.289 412.102 307.289 411.742 307.289 411.695 307.289 411.656 307.285 411.625 307.285 411.59 307.281 411.559 307.277 411.523ZM316.98 412.754 315.016 414.504C314.465 415.535 313.961 416.309 313.508 416.82 313.055 417.328 312.715 417.586 312.496 417.586 312.375 417.586 312.316 417.504 312.316 417.348 312.316 417.039 312.461 416.645 312.75 416.168 312.863 415.98 312.992 415.797 313.145 415.617 313.289 415.438 313.43 415.281 313.563 415.152 313.695 415.023 313.871 414.859 314.086 414.664 314.305 414.473 314.453 414.34 314.531 414.266 314.926 413.395 315.211 412.727 315.383 412.266 315.012 412.691 314.688 413.043 314.41 413.316 314.137 413.59 313.883 413.801 313.652 413.949 313.422 414.094 313.211 414.168 313.027 414.168 312.828 414.168 312.641 413.996 312.473 413.648 312.301 413.301 312.215 412.941 312.215 412.574 312.215 412.402 312.254 412.223 312.324 412.035 312.398 411.848 312.512 411.648 312.668 411.434 312.824 411.219 313.023 411 313.266 410.777 313.504 410.551 313.789 410.332 314.109 410.117 314.723 409.703 315.199 409.496 315.535 409.496 315.789 409.496 315.918 409.598 315.918 409.797 315.918 410.074 315.641 410.348 315.094 410.613 314.758 410.77 314.426 410.98 314.098 411.238 313.766 411.5 313.5 411.777 313.297 412.07 313.094 412.363 312.992 412.629 312.992 412.859 312.992 412.977 313.02 413.07 313.07 413.137 313.121 413.203 313.188 413.238 313.27 413.238 313.406 413.238 313.566 413.172 313.742 413.035 313.922 412.898 314.184 412.656 314.531 412.309 314.688 412.152 314.898 411.898 315.16 411.543 315.426 411.191 315.641 410.922 315.813 410.738 315.984 410.551 316.137 410.461 316.277 410.461 316.355 410.461 316.418 410.484 316.469 410.539 316.52 410.594 316.543 410.672 316.543 410.773 316.543 410.969 316.469 411.254 316.328 411.629 316.184 412 315.922 412.613 315.551 413.465L316.98 412.336ZM320.742 412.313V412.742C320.484 412.996 320.273 413.168 320.117 413.254 319.961 413.34 319.73 413.375 319.438 413.355 318.922 414.016 318.473 414.344 318.082 414.344 317.863 414.344 317.66 414.262 317.48 414.105 317.297 413.945 317.152 413.73 317.047 413.457 316.938 413.184 316.883 412.879 316.883 412.543 316.883 412.27 316.965 411.965 317.133 411.633 317.301 411.301 317.52 410.988 317.785 410.699 318.051 410.41 318.336 410.18 318.641 410 318.941 409.824 319.223 409.734 319.484 409.734 319.668 409.734 319.816 409.766 319.922 409.828 320.027 409.891 320.082 409.977 320.082 410.086 320.082 410.172 320.035 410.27 319.945 410.383 320.094 410.414 320.199 410.473 320.254 410.555 320.309 410.633 320.336 410.777 320.336 410.984 320.336 411.191 320.293 411.449 320.203 411.762 320.113 412.07 319.992 412.363 319.84 412.637L319.945 412.754H320.035C320.102 412.754 320.168 412.734 320.234 412.699 320.297 412.664 320.355 412.625 320.406 412.582 320.457 412.543 320.57 412.453 320.742 412.313ZM319.527 410.625C319.199 410.84 318.918 411.031 318.688 411.203 318.453 411.379 318.254 411.555 318.094 411.73 317.934 411.906 317.824 412.086 317.77 412.266 317.668 412.746 317.621 413.004 317.621 413.043 317.621 413.324 317.805 413.465 318.164 413.465 318.336 413.465 318.617 413.309 319.016 412.992 318.949 412.789 318.914 412.598 318.914 412.414 318.914 412.145 318.965 411.871 319.07 411.59 319.172 411.309 319.324 410.988 319.527 410.625ZM324.535 412.313V412.742C324.277 412.996 324.066 413.168 323.91 413.254 323.754 413.34 323.523 413.375 323.23 413.355 322.715 414.016 322.266 414.344 321.875 414.344 321.652 414.344 321.453 414.262 321.273 414.105 321.09 413.945 320.945 413.73 320.84 413.457 320.73 413.184 320.676 412.879 320.676 412.543 320.676 412.27 320.758 411.965 320.926 411.633 321.094 411.301 321.313 410.988 321.578 410.699 321.844 410.41 322.125 410.18 322.434 410 322.734 409.824 323.016 409.734 323.277 409.734 323.461 409.734 323.605 409.766 323.715 409.828 323.82 409.891 323.875 409.977 323.875 410.086 323.875 410.172 323.828 410.27 323.738 410.383 323.887 410.414 323.992 410.473 324.047 410.555 324.102 410.633 324.129 410.777 324.129 410.984 324.129 411.191 324.082 411.449 323.996 411.762 323.906 412.07 323.785 412.363 323.633 412.637L323.738 412.754H323.828C323.895 412.754 323.961 412.734 324.023 412.699 324.09 412.664 324.148 412.625 324.199 412.582 324.25 412.543 324.363 412.453 324.535 412.313ZM323.32 410.625C322.992 410.84 322.711 411.031 322.477 411.203 322.246 411.379 322.047 411.555 321.887 411.73 321.727 411.906 321.617 412.086 321.563 412.266 321.461 412.746 321.414 413.004 321.414 413.043 321.414 413.324 321.598 413.465 321.957 413.465 322.125 413.465 322.41 413.309 322.809 412.992 322.742 412.789 322.707 412.598 322.707 412.414 322.707 412.145 322.758 411.871 322.863 411.59 322.965 411.309 323.117 410.988 323.32 410.625ZM327.23 412.336C326.883 412.762 326.57 413.125 326.297 413.426 326.023 413.727 325.801 413.949 325.629 414.094 325.457 414.242 325.34 414.316 325.277 414.316 325.176 414.316 325.059 414.227 324.93 414.047 324.805 413.867 324.691 413.637 324.602 413.363 324.512 413.086 324.465 412.801 324.465 412.516 324.465 412.102 324.652 411.684 325.023 411.262 325.395 410.844 325.816 410.492 326.289 410.215 326.762 409.938 327.117 409.797 327.352 409.797 327.547 409.797 327.738 409.93 327.922 410.195 328.227 409.508 328.516 408.895 328.789 408.359 329.063 407.828 329.293 407.43 329.477 407.172 329.664 406.91 329.797 406.777 329.875 406.777 329.965 406.777 330.043 406.824 330.113 406.918 330.188 407.008 330.223 407.113 330.223 407.227 330.223 407.449 330.074 407.832 329.773 408.371 329.473 408.914 329.18 409.438 328.887 409.953 328.594 410.465 328.344 410.969 328.137 411.469 327.926 411.965 327.824 412.426 327.824 412.848 327.824 413.234 327.938 413.426 328.164 413.426 328.301 413.426 328.477 413.34 328.688 413.172 328.895 413.004 329.195 412.723 329.578 412.324V412.793C328.727 413.984 328.07 414.578 327.609 414.578 327.426 414.578 327.289 414.504 327.211 414.348 327.129 414.195 327.09 413.965 327.09 413.66 327.09 413.254 327.137 412.813 327.23 412.336ZM327.668 410.773C327.316 410.902 326.906 411.105 326.43 411.391 325.957 411.676 325.672 411.871 325.57 411.977 325.484 412.063 325.41 412.223 325.344 412.457 325.277 412.691 325.242 412.871 325.242 412.992 325.242 413.063 325.262 413.121 325.301 413.168 325.34 413.215 325.387 413.238 325.449 413.238 325.504 413.238 325.566 413.215 325.637 413.164 325.711 413.109 325.824 413.012 325.977 412.859 326.133 412.711 326.238 412.617 326.285 412.574 326.352 412.508 326.5 412.371 326.73 412.16 326.961 411.949 327.129 411.781 327.238 411.664 327.344 411.543 327.434 411.41 327.508 411.262 327.582 411.117 327.637 410.953 327.668 410.773ZM330.418 414.367C330.352 414.367 330.297 414.34 330.246 414.285 330.203 414.23 330.176 414.152 330.176 414.055 330.176 413.977 330.219 413.84 330.305 413.641 330.391 413.441 330.496 413.266 330.625 413.109 330.754 412.953 330.887 412.875 331.023 412.875 331.191 412.875 331.277 412.984 331.277 413.199 331.277 413.32 331.234 413.477 331.141 413.668 331.051 413.855 330.938 414.02 330.805 414.16 330.672 414.297 330.543 414.367 330.418 414.367ZM334.453 414.367C334.387 414.367 334.332 414.34 334.281 414.285 334.234 414.23 334.211 414.152 334.211 414.055 334.211 413.977 334.254 413.84 334.34 413.641 334.426 413.441 334.531 413.266 334.66 413.109 334.789 412.953 334.922 412.875 335.059 412.875 335.227 412.875 335.313 412.984 335.313 413.199 335.313 413.32 335.27 413.477 335.176 413.668 335.086 413.855 334.973 414.02 334.84 414.16 334.707 414.297 334.578 414.367 334.453 414.367ZM338.488 414.367C338.422 414.367 338.367 414.34 338.316 414.285 338.273 414.23 338.246 414.152 338.246 414.055 338.246 413.977 338.289 413.84 338.375 413.641 338.461 413.441 338.566 413.266 338.695 413.109 338.824 412.953 338.957 412.875 339.094 412.875 339.262 412.875 339.348 412.984 339.348 413.199 339.348 413.32 339.305 413.477 339.211 413.668 339.121 413.855 339.008 414.02 338.875 414.16 338.738 414.297 338.613 414.367 338.488 414.367ZM338.488 414.367"/>
</g>
</svg>
